<?xml version="1.0" standalone="no"?>
<svg viewBox="0 0 200 200" xmlns="http://www.w3.org/2000/svg">
  <path fill="#C09ACB" d="M38.2,-64.9C50.4,-59.1,61.7,-50.7,70.8,-39.4C79.9,-28.1,86.7,-14.1,86.7,0C86.7,14,79.8,28.1,72.2,41.9C64.6,55.7,56.2,69.2,44,76.8C31.9,84.3,15.9,85.9,0.4,85.2C-15.2,84.6,-30.4,81.9,-41.3,73.6C-52.2,65.3,-58.8,51.5,-67,38.3C-75.1,25.2,-84.9,12.6,-85.4,-0.3C-85.9,-13.2,-77.2,-26.4,-68.1,-37.8C-58.9,-49.3,-49.3,-59.1,-37.9,-65.3C-26.5,-71.4,-13.3,-74,-0.1,-73.8C13,-73.5,26,-70.6,38.2,-64.9Z" transform="translate(100 100)" />
</svg>
